<svg xmlns="http://www.w3.org/2000/svg" width="18.375" height="21" viewBox="0 0 18.375 21">
  <path id="calendar-alt-regular" d="M6.07,11.813H4.43a.494.494,0,0,1-.492-.492V9.68a.494.494,0,0,1,.492-.492H6.07a.494.494,0,0,1,.492.492V11.32A.494.494,0,0,1,6.07,11.813Zm4.43-.492V9.68a.494.494,0,0,0-.492-.492H8.367a.494.494,0,0,0-.492.492V11.32a.494.494,0,0,0,.492.492h1.641A.494.494,0,0,0,10.5,11.32Zm3.938,0V9.68a.494.494,0,0,0-.492-.492H12.3a.494.494,0,0,0-.492.492V11.32a.494.494,0,0,0,.492.492h1.641A.494.494,0,0,0,14.438,11.32ZM10.5,15.258V13.617a.494.494,0,0,0-.492-.492H8.367a.494.494,0,0,0-.492.492v1.641a.494.494,0,0,0,.492.492h1.641A.494.494,0,0,0,10.5,15.258Zm-3.938,0V13.617a.494.494,0,0,0-.492-.492H4.43a.494.494,0,0,0-.492.492v1.641a.494.494,0,0,0,.492.492H6.07A.494.494,0,0,0,6.563,15.258Zm7.875,0V13.617a.494.494,0,0,0-.492-.492H12.3a.494.494,0,0,0-.492.492v1.641a.494.494,0,0,0,.492.492h1.641A.494.494,0,0,0,14.438,15.258ZM18.375,4.594V19.031A1.969,1.969,0,0,1,16.406,21H1.969A1.969,1.969,0,0,1,0,19.031V4.594A1.969,1.969,0,0,1,1.969,2.625H3.938V.492A.494.494,0,0,1,4.43,0H6.07a.494.494,0,0,1,.492.492V2.625h5.25V.492A.494.494,0,0,1,12.3,0h1.641a.494.494,0,0,1,.492.492V2.625h1.969A1.969,1.969,0,0,1,18.375,4.594ZM16.406,18.785V6.563H1.969V18.785a.247.247,0,0,0,.246.246H16.16A.247.247,0,0,0,16.406,18.785Z" fill="#7d848a"/>
</svg>
