<svg xmlns="http://www.w3.org/2000/svg" width="18.31" height="18.306" viewBox="0 0 18.31 18.306">
  <path id="instagram-brands" d="M9.082,36.284a4.693,4.693,0,1,0,4.693,4.693A4.686,4.686,0,0,0,9.082,36.284Zm0,7.745a3.051,3.051,0,1,1,3.051-3.051,3.057,3.057,0,0,1-3.051,3.051Zm5.98-7.937A1.095,1.095,0,1,1,13.967,35,1.092,1.092,0,0,1,15.062,36.093ZM18.17,37.2a5.417,5.417,0,0,0-1.479-3.836,5.453,5.453,0,0,0-3.836-1.479c-1.511-.086-6.041-.086-7.553,0a5.445,5.445,0,0,0-3.836,1.475A5.435,5.435,0,0,0-.011,37.2c-.086,1.511-.086,6.041,0,7.553a5.417,5.417,0,0,0,1.479,3.836A5.46,5.46,0,0,0,5.3,50.066c1.511.086,6.041.086,7.553,0a5.417,5.417,0,0,0,3.836-1.479,5.453,5.453,0,0,0,1.479-3.836C18.256,43.241,18.256,38.715,18.17,37.2Zm-1.952,9.17a3.089,3.089,0,0,1-1.74,1.74c-1.2.478-4.064.368-5.4.368s-4.195.106-5.4-.368a3.089,3.089,0,0,1-1.74-1.74c-.478-1.205-.368-4.064-.368-5.4s-.106-4.2.368-5.4a3.089,3.089,0,0,1,1.74-1.74c1.2-.478,4.064-.368,5.4-.368s4.195-.106,5.4.368a3.089,3.089,0,0,1,1.74,1.74c.478,1.2.368,4.064.368,5.4S16.7,45.173,16.218,46.374Z" transform="translate(0.075 -31.825)" fill="#fff"/>
</svg>
