<svg xmlns="http://www.w3.org/2000/svg" width="18.375" height="21" viewBox="0 0 18.375 21">
  <path id="user-regular" d="M12.863,12.469c-1.177,0-1.743.656-3.675.656s-2.494-.656-3.675-.656A5.514,5.514,0,0,0,0,17.981v1.05A1.969,1.969,0,0,0,1.969,21H16.406a1.969,1.969,0,0,0,1.969-1.969v-1.05A5.514,5.514,0,0,0,12.863,12.469Zm3.544,6.563H1.969v-1.05a3.55,3.55,0,0,1,3.544-3.544,16.059,16.059,0,0,0,3.675.656,15.9,15.9,0,0,0,3.675-.656,3.55,3.55,0,0,1,3.544,3.544ZM9.188,11.813A5.906,5.906,0,1,0,3.281,5.906,5.908,5.908,0,0,0,9.188,11.813Zm0-9.844A3.938,3.938,0,1,1,5.25,5.906,3.944,3.944,0,0,1,9.188,1.969Z" fill="#7d848a"/>
</svg>
