<svg xmlns="http://www.w3.org/2000/svg" width="54.458" height="54.696" viewBox="0 0 54.458 54.696">
  <g id="whatsapp_1_" data-name="whatsapp (1)" transform="translate(0 0.001)">
    <path id="Path_275" data-name="Path 275" d="M1.164,54.695A1.164,1.164,0,0,1,.042,53.224L3.6,40.24A27.122,27.122,0,1,1,27.338,54.246h-.012a27.175,27.175,0,0,1-12.549-3.081L1.459,54.657a1.17,1.17,0,0,1-.3.038Zm0,0" transform="translate(0)" fill="#e5e5e5"/>
    <path id="Path_276" data-name="Path 276" d="M10.894,63.263l3.682-13.446a25.958,25.958,0,1,1,22.492,13h-.011a25.934,25.934,0,0,1-12.4-3.159Zm14.4-8.306.788.467a21.545,21.545,0,0,0,10.981,3.007h.008A21.572,21.572,0,1,0,18.793,48.323l.513.816L17.126,57.1Zm0,0" transform="translate(-9.73 -9.732)" fill="#fff"/>
    <path id="Path_277" data-name="Path 277" d="M19.344,69.938,22.9,56.956A25.058,25.058,0,1,1,44.612,69.5H44.6a25.053,25.053,0,0,1-11.974-3.049Zm0,0" transform="translate(-17.277 -17.313)" fill="#64b161"/>
    <g id="Group_203" data-name="Group 203" transform="translate(1.164 1.163)">
      <path id="Path_278" data-name="Path 278" d="M10.894,63.263l3.682-13.446a25.958,25.958,0,1,1,22.492,13h-.011a25.934,25.934,0,0,1-12.4-3.159Zm14.4-8.306.788.467a21.545,21.545,0,0,0,10.981,3.007h.008A21.572,21.572,0,1,0,18.793,48.323l.513.816L17.126,57.1Zm0,0" transform="translate(-10.894 -10.895)" fill="#fff"/>
      <path id="Path_279" data-name="Path 279" d="M139.148,142.749c-.486-1.08-1-1.1-1.46-1.12-.378-.016-.811-.015-1.243-.015a2.383,2.383,0,0,0-1.729.812,7.27,7.27,0,0,0-2.27,5.409c0,3.191,2.324,6.275,2.649,6.708s4.487,7.19,11.079,9.79c5.479,2.161,6.593,1.731,7.783,1.623s3.837-1.569,4.377-3.083a5.416,5.416,0,0,0,.378-3.084c-.162-.27-.595-.432-1.243-.757s-3.837-1.894-4.432-2.11-1.027-.324-1.459.325-1.675,2.109-2.053,2.541-.757.488-1.405.163a17.733,17.733,0,0,1-5.215-3.219,19.541,19.541,0,0,1-3.608-4.491c-.378-.648-.006-.969.285-1.323A19.558,19.558,0,0,0,141.2,148.7a1.2,1.2,0,0,0-.054-1.136C140.985,147.239,139.724,144.032,139.148,142.749Zm0,0" transform="translate(-119.461 -127.649)" fill="#fff"/>
    </g>
  </g>
</svg>
