<svg xmlns="http://www.w3.org/2000/svg" width="18.921" height="13.304" viewBox="0 0 18.921 13.304">
  <path id="youtube-brands" d="M33.458,66.082A2.377,2.377,0,0,0,31.785,64.4a56.177,56.177,0,0,0-7.392-.4A56.178,56.178,0,0,0,17,64.4a2.377,2.377,0,0,0-1.673,1.684,26.767,26.767,0,0,0,0,9.167A2.342,2.342,0,0,0,17,76.906a56.182,56.182,0,0,0,7.392.4,56.182,56.182,0,0,0,7.392-.4,2.342,2.342,0,0,0,1.673-1.657,26.768,26.768,0,0,0,0-9.167Zm-11,7.4V67.852L27.4,70.665Z" transform="translate(-14.933 -64)" fill="#fff"/>
</svg>
